<?xml version="1.0" encoding="UTF-8" standalone="no"?>
<svg
   xmlns:dc="http://purl.org/dc/elements/1.1/"
   xmlns:cc="http://creativecommons.org/ns#"
   xmlns:rdf="http://www.w3.org/1999/02/22-rdf-syntax-ns#"
   xmlns:svg="http://www.w3.org/2000/svg"
   xmlns="http://www.w3.org/2000/svg"
   xmlns:sodipodi="http://sodipodi.sourceforge.net/DTD/sodipodi-0.dtd"
   xmlns:inkscape="http://www.inkscape.org/namespaces/inkscape"
   aria-hidden="true"
   style="overflow:hidden"
   version="1.1"
   id="svg439"
   sodipodi:docname="IcoMoon.svg"
   inkscape:version="0.92.4 (5da689c313, 2019-01-14)"
   width="100"
   height="100"
   viewBox="0 0 100 100">
  <defs
     id="defs1861" />
  <metadata
     id="metadata443">
    <rdf:RDF>
      <cc:Work
         rdf:about="">
        <dc:format>image/svg+xml</dc:format>
        <dc:type
           rdf:resource="http://purl.org/dc/dcmitype/StillImage" />
        <dc:title />
      </cc:Work>
    </rdf:RDF>
  </metadata>
  <sodipodi:namedview
     pagecolor="#ffffff"
     bordercolor="#666666"
     borderopacity="1"
     objecttolerance="10"
     gridtolerance="10"
     guidetolerance="10"
     inkscape:pageopacity="0"
     inkscape:pageshadow="2"
     inkscape:window-width="1410"
     inkscape:window-height="1018"
     id="namedview441"
     showgrid="false"
     inkscape:zoom="2.36"
     inkscape:cx="-163.23841"
     inkscape:cy="50"
     inkscape:window-x="-7"
     inkscape:window-y="0"
     inkscape:window-maximized="0"
     inkscape:current-layer="layer67"
     viewbox-width="100"
     viewbox-height="100" />
  <g
     inkscape:groupmode="layer"
     id="layer1"
     inkscape:label="Aid-Kit"
     style="display:inline">
    <path
       id="path1890"
       d="M 87.5,21.874998 H 68.75 v -12.5 c 0,-3.438 -2.813,-6.25 -6.25,-6.25 h -25 c -3.438,0 -6.25,2.813 -6.25,6.25 v 12.5 H 12.5 c -6.875,0 -12.5,5.625 -12.5,12.5 v 50.000004 c 0,6.875 5.625,12.5 12.5,12.5 h 75 c 6.875,0 12.5,-5.625 12.5,-12.5 V 34.374998 c 0,-6.875 -5.625,-12.5 -12.5,-12.5 z m -50,-12.5 h 25 v 12.5 h -25 z m 37.5,56.25 H 56.25 V 84.375002 H 43.75 V 65.624998 H 25 v -12.5 h 18.75 v -18.75 h 12.5 v 18.75 H 75 Z"
       inkscape:connector-curvature="0" />
  </g>
  <g
     inkscape:groupmode="layer"
     id="layer2"
     inkscape:label="Airplane"
     style="display:inline">
    <path
       id="path1916"
       d="m 74.999499,62.498089 -17.854,-17.854 42.854,-32.144 L 87.498499,8.9426646e-5 33.932501,21.430089 17.067501,4.5640894 c -4.860999,-4.86099997 -11.6509995,-6.026 -15.0879995,-2.589 -3.437,3.437 -2.272,10.2269996 2.589,15.0879996 l 16.8639995,16.864 -21.4319995,53.572 12.4990005,12.501001 32.146999,-42.858001 17.853997,17.854 v 24.998 h 12.499 l 6.249,-18.749 18.749,-6.25 v -12.499 h -24.998 z"
       inkscape:connector-curvature="0" />
  </g>
  <g
     inkscape:groupmode="layer"
     id="layer3"
     inkscape:label="Alarm"
     style="display:inline">
    <g
       id="g5661">
      <path
         id="path5647"
         d="M 50,12.5 C 25.838,12.5 6.25,32.088 6.25,56.25 6.25,80.412 25.838,100 50,100 74.162,100 93.75,80.412 93.75,56.25 93.75,32.088 74.162,12.5 50,12.5 Z m 0,78.906 c -19.416,0 -35.156,-15.74 -35.156,-35.156 0,-19.416 15.74,-35.156 35.156,-35.156 19.416,0 35.156,15.74 35.156,35.156 0,19.416 -15.74,35.156 -35.156,35.156 z M 91.287,28.044 C 92.854,25.305 93.75,22.132 93.75,18.75 93.75,8.395 85.355,0 75,0 68.963,0 63.594,2.854 60.164,7.285 73.043,9.945 84.11,17.558 91.287,28.045 v 0 z M 39.836,7.285 C 36.407,2.854 31.037,0 25,0 14.645,0 6.25,8.395 6.25,18.75 c 0,3.382 0.896,6.555 2.463,9.294 7.178,-10.486 18.244,-18.1 31.123,-20.76 z"
         inkscape:connector-curvature="0" />
      <path
         id="path5649"
         d="m 50,56.25 v -25 H 43.75 V 62.5 h 25 v -6.25 z"
         inkscape:connector-curvature="0" />
    </g>
  </g>
  <g
     inkscape:groupmode="layer"
     id="layer4"
     inkscape:label="Arrow Down"
     style="display:inline">
    <path
       id="path1094"
       d="m 50,98.437498 46.875,-46.875 H 68.75 V 1.562502 H 31.25 V 51.562498 H 3.125 Z"
       inkscape:connector-curvature="0" />
  </g>
  <g
     inkscape:groupmode="layer"
     id="layer5"
     inkscape:label="Arrow Down Left"
     style="display:inline">
    <path
       id="path1120"
       d="M 71.875,100 46.875,75.000001 100,21.874998 78.125,-1.5e-6 25,53.125001 0,28.124998 V 100 Z"
       inkscape:connector-curvature="0" />
  </g>
  <g
     inkscape:groupmode="layer"
     id="layer6"
     inkscape:label="Arrow Down Right"
     style="display:inline">
    <path
       id="path1146"
       d="m 100,28.125 -25,25 L 21.875,0 -1.5000001e-7,21.875 53.125,75 l -25,25 H 100 Z"
       inkscape:connector-curvature="0" />
  </g>
  <g
     inkscape:groupmode="layer"
     id="layer7"
     inkscape:label="Arrow Left"
     style="display:inline">
    <path
       id="path1172"
       d="m 1.5625,50 46.875,46.875 V 68.75 h 50 v -37.5 h -50 V 3.1250005 Z"
       inkscape:connector-curvature="0" />
  </g>
  <g
     inkscape:groupmode="layer"
     id="layer8"
     inkscape:label="Arrow Right"
     style="display:inline">
    <path
       id="path1198"
       d="M 98.4375,50 51.5625,3.125 V 31.25 h -50 v 37.5 h 50 v 28.125 z"
       inkscape:connector-curvature="0" />
  </g>
  <g
     inkscape:groupmode="layer"
     id="layer9"
     inkscape:label="Arrow Up"
     style="display:inline">
    <path
       id="path1224"
       d="M 50,1.5625 3.125,48.4375 H 31.25 v 50 h 37.5 v -50 h 28.125 z"
       inkscape:connector-curvature="0" />
  </g>
  <g
     inkscape:groupmode="layer"
     id="layer10"
     inkscape:label="Arrow Up Left"
     style="display:inline">
    <path
       id="path4025"
       d="M 1.5e-6,71.875 25.000001,46.875 78.124999,100 99.999999,78.125 46.875001,25 71.874999,0 H 1.5e-6 Z"
       inkscape:connector-curvature="0" />
  </g>
  <g
     inkscape:groupmode="layer"
     id="layer11"
     inkscape:label="Arrow Up Right"
     style="display:inline">
    <path
       id="path4051"
       d="M 28.125,-1.5000002e-7 53.125,25 0,78.125 21.875,100 75,46.875 l 25,25 V -1.5000002e-7 Z"
       inkscape:connector-curvature="0" />
  </g>
  <g
     inkscape:groupmode="layer"
     id="layer12"
     inkscape:label="Barcode"
     style="display:inline">
    <path
       id="path4077"
       d="M 0,12.5 H 12.5 V 75 H 0 Z m 18.75,0 H 25 V 75 h -6.25 z m 12.5,0 H 37.5 V 75 h -6.25 z m 18.75,0 h 6.25 V 75 H 50 Z m 25,0 h 6.25 V 75 H 75 Z m 18.75,0 H 100 V 75 h -6.25 z m -31.25,0 h 3.125 V 75 H 62.5 Z m -18.75,0 h 3.125 V 75 H 43.75 Z m 40.625,0 H 87.5 V 75 H 84.375 Z M 0,81.25 H 6.25 V 87.5 H 0 Z m 18.75,0 H 25 v 6.25 h -6.25 z m 12.5,0 h 6.25 v 6.25 h -6.25 z m 31.25,0 h 6.25 V 87.5 H 62.5 Z m 31.25,0 H 100 V 87.5 H 93.75 Z M 75,81.25 H 87.5 V 87.5 H 75 Z m -31.25,0 h 12.5 v 6.25 h -12.5 z"
       inkscape:connector-curvature="0" />
  </g>
  <g
     inkscape:groupmode="layer"
     id="layer13"
     inkscape:label="Bell"
     style="display:inline">
    <path
       id="path4103"
       d="m 100.072,78.1245 c 0,-28.125 -25,-21.875 -25,-43.75 0,-1.813 -0.175,-3.361 -0.493,-4.68 -1.644,-11.037 -9,-19.895 -18.532,-22.594 0.085,-0.386 0.129,-0.784 0.129,-1.192 0,-3.25 -2.813,-5.908 -6.25,-5.908 -3.437,0 -6.25,2.659 -6.25,5.908 0,0.408 0.045,0.807 0.129,1.192 -10.69,3.027 -18.644,13.799 -18.872,26.703 -0.004,0.188 -0.006,0.377 -0.006,0.571 0,21.875 -25,15.625 -25,43.75 0,7.444 16.659,13.671 38.962,15.242 2.102,3.946 6.255,6.633 11.038,6.633 4.783,0 8.936,-2.687 11.038,-6.633 22.303,-1.571 38.962,-7.798 38.962,-15.242 0,-0.022 -0.003,-0.045 -0.003,-0.067 l 0.149,0.067 z m -19.458,5.283 c -5.296,1.413 -11.539,2.429 -18.239,2.993 -0.557,-6.388 -5.916,-11.401 -12.449,-11.401 -6.533,0 -11.892,5.012 -12.449,11.401 -6.7,-0.564 -12.943,-1.58 -18.239,-2.993 -7.288,-1.945 -10.772,-4.12 -12.048,-5.283 1.275,-1.163 4.76,-3.338 12.048,-5.283 8.474,-2.261 19.372,-3.506 30.688,-3.506 11.316,0 22.214,1.245 30.688,3.506 7.288,1.945 10.772,4.12 12.048,5.283 -1.275,1.163 -4.76,3.338 -12.048,5.283 z"
       inkscape:connector-curvature="0" />
  </g>
  <g
     inkscape:groupmode="layer"
     id="layer14"
     inkscape:label="Bin"
     style="display:inline">
    <g
       id="g4177"
       transform="translate(3.127,5e-4)">
      <path
         id="path4163"
         d="m 12.5,31.25 v 62.5 c 0,3.438 2.813,6.25 6.25,6.25 H 75 c 3.438,0 6.25,-2.813 6.25,-6.25 V 31.25 Z M 31.25,87.5 H 25 V 43.75 h 6.25 z m 12.5,0 H 37.5 V 43.75 h 6.25 z m 12.5,0 H 50 V 43.75 h 6.25 z m 12.5,0 H 62.5 V 43.75 h 6.25 z"
         inkscape:connector-curvature="0" />
      <path
         id="path4165"
         d="M 82.813,12.5 H 62.5 V 4.687 c 0,-2.578 -2.109,-4.688 -4.688,-4.688 H 35.937 c -2.578,0 -4.688,2.109 -4.688,4.688 V 12.5 H 10.936 c -2.578,0 -4.688,2.109 -4.688,4.688 v 7.813 h 81.25 V 17.188 C 87.498,14.61 85.389,12.5 82.81,12.5 Z m -26.563,0 H 37.5 V 6.328 h 18.75 z"
         inkscape:connector-curvature="0" />
    </g>
  </g>
  <g
     inkscape:groupmode="layer"
     id="layer15"
     inkscape:label="Bin 2"
     style="display:inline">
    <path
       id="path4194"
       d="m 18.749999,100 h 62.500002 l 6.25,-68.75 H 12.499999 Z m 43.75,-87.5 V 0 h -25 V 12.5 H 6.2499985 V 31.25 L 12.499999,25 h 75.000003 l 6.25,6.25 V 12.5 Z m -6.25,0 h -12.5 V 6.25 h 12.5 z"
       inkscape:connector-curvature="0" />
  </g>
  <g
     inkscape:groupmode="layer"
     id="layer16"
     inkscape:label="Binoculars"
     style="display:inline">
    <path
       id="path4245"
       d="m 6.250002,0 h 37.5 v 6.25 h -37.5 z m 50,0 H 93.749998 V 6.25 H 56.250002 Z m 36.718996,31.25 h -5.469 v -25 h -25 v 25 H 37.500002 v -25 h -25 v 25 h -5.469 c -3.867,0 -7.031,3.164 -7.031,7.031 v 54.688 c 0,3.867 3.164,7.031 7.031,7.031 h 29.688 c 3.867,0 7.031,-3.164 7.031,-7.031 V 56.25 h 12.5 v 36.719 c 0,3.867 3.163996,7.031 7.030996,7.031 h 29.688 c 3.867,0 7.031,-3.164 7.031,-7.031 V 38.281 c 0,-3.867 -3.164,-7.031 -7.031,-7.031 z m -58.984996,62.5 h -24.219 c -1.934,0 -3.516,-1.406 -3.516,-3.125 0,-1.719 1.582,-3.125 3.516,-3.125 h 24.219 c 1.934,0 3.516,1.406 3.516,3.125 0,1.719 -1.582,3.125 -3.516,3.125 z M 53.125002,50 h -6.25 c -1.719,0 -3.125,-1.406 -3.125,-3.125 0,-1.719 1.406,-3.125 3.125,-3.125 h 6.25 c 1.719,0 3.125,1.406 3.125,3.125 0,1.719 -1.406,3.125 -3.125,3.125 z m 37.108996,43.75 h -24.219 c -1.934,0 -3.516,-1.406 -3.516,-3.125 0,-1.719 1.582,-3.125 3.516,-3.125 h 24.219 c 1.934,0 3.516,1.406 3.516,3.125 0,1.719 -1.582,3.125 -3.516,3.125 z"
       inkscape:connector-curvature="0" />
  </g>
  <g
     inkscape:groupmode="layer"
     id="layer17"
     inkscape:label="Blocked"
     style="display:inline">
    <path
       id="path4271"
       d="M 85.355,14.645002 C 75.911,5.2010015 63.355,1.5e-6 50,1.5e-6 c -13.355,0 -25.912,5.201 -35.355,14.6450005 C 5.201,24.089001 0,36.645002 0,50.000001 c 0,13.354997 5.201,25.911997 14.645,35.354997 9.444,9.444 22,14.645 35.355,14.645 13.355,0 25.912,-5.201 35.355,-14.645 9.444,-9.444 14.645,-22 14.645,-35.354997 0,-13.355 -5.201,-25.912 -14.645,-35.354999 z M 87.5,50.000001 c 0,8.087 -2.574,15.584997 -6.945,21.716997 L 28.283,19.445002 c 6.132,-4.371 13.629,-6.945 21.717,-6.945 20.678,0 37.5,16.822 37.5,37.499999 z m -75,0 c 0,-8.087 2.574,-15.585 6.945,-21.716999 l 52.272,52.271997 c -6.132,4.371 -13.63,6.944 -21.717,6.944 -20.678,0 -37.5,-16.822 -37.5,-37.499997 z"
       inkscape:connector-curvature="0" />
  </g>
  <g
     inkscape:groupmode="layer"
     id="layer18"
     inkscape:label="Bookmark"
     style="display:inline">
    <path
       id="path4297"
       d="M 18.75,-5e-7 V 100 L 50,68.75 81.25,100 V -5e-7 Z"
       inkscape:connector-curvature="0" />
  </g>
  <g
     inkscape:groupmode="layer"
     id="layer19"
     inkscape:label="Bookmarks"
     style="display:inline">
    <path
       id="path4323"
       d="M 25,12.499998 V 100 L 56.25,68.750002 87.5,100 V 12.499998 Z M 75,-2e-6 H 12.5 v 87.500004 l 6.25,-6.25 V 6.249998 H 75 Z"
       inkscape:connector-curvature="0" />
  </g>
  <g
     inkscape:groupmode="layer"
     id="layer20"
     inkscape:label="Bullhorn"
     style="display:inline">
    <path
       id="path4349"
       d="m 100.0005,41.920233 c 0,-19.622003 -5.741,-35.5410032 -12.84,-35.6670032 0.029,-10e-4 0.056,-0.003 0.085,-0.003 h -8.1 c 0,0 -19.023,14.2910002 -46.409,19.8980002 -0.836,4.423 -1.37,9.695 -1.37,15.772003 0,6.077 0.534,11.348 1.37,15.771 27.386,5.607 46.409,19.898 46.409,19.898 h 8.1 c -0.029,0 -0.056,-0.002 -0.085,-0.003 7.099,-0.126 12.84,-16.045 12.84,-35.666 z m -15.545,30.273 c -0.916,0 -1.907,-0.951 -2.417,-1.518 -1.233,-1.373 -2.421,-3.512 -3.436,-6.184 -2.271,-5.98 -3.522,-13.995 -3.522,-22.571 0,-8.576003 1.251,-16.591003 3.522,-22.571003 1.015,-2.673 2.203,-4.811 3.436,-6.184 0.509,-0.568 1.5,-1.519 2.417,-1.519 0.917,0 1.908,0.952 2.416,1.519 1.234,1.373 2.421,3.512 3.436,6.184 2.271,5.979 3.522,13.995 3.522,22.571003 0,8.576 -1.251,16.591 -3.522,22.571 -1.015,2.673 -2.203,4.811 -3.436,6.184 -0.509,0.567 -1.5,1.518 -2.416,1.518 z m -59.864,-30.273 c 0,-5.073003 0.372,-10.003003 1.079,-14.560003 -4.626,0.64 -8.686,1.008 -13.705,1.008 -6.549,0 -6.549,0 -6.549,0 l -5.417,9.247 v 8.610003 l 5.416,9.247 c 0,0 0,0 6.549,0 5.019,0 9.079,0.369 13.705,1.008 -0.707,-4.557 -1.079,-9.487 -1.079,-14.56 z m 11.361,20.792 -12.5,-2.394 7.992,31.401 c 0.414,1.624 2.026,2.445 3.583,1.822 l 11.578,-4.634 c 1.557,-0.623 2.18,-2.34 1.386,-3.817 z m 48.503,-9.125 c -0.353,0 -0.735,-0.367 -0.931,-0.585 -0.476,-0.529 -0.933,-1.354 -1.324,-2.384 -0.875,-2.305 -1.357,-5.394 -1.357,-8.699 0,-3.305003 0.482,-6.394003 1.357,-8.699003 0.391,-1.03 0.849,-1.854 1.324,-2.384 0.196,-0.219 0.578,-0.585 0.931,-0.585 0.353,0 0.735,0.367 0.931,0.585 0.476,0.529 0.933,1.353 1.324,2.384 0.875,2.304 1.358,5.394 1.358,8.699003 0,3.305 -0.482,6.394 -1.358,8.699 -0.391,1.03 -0.849,1.854 -1.324,2.384 -0.196,0.219 -0.578,0.585 -0.931,0.585 z"
       inkscape:connector-curvature="0" />
  </g>
  <g
     inkscape:groupmode="layer"
     id="layer21"
     inkscape:label="Camera"
     style="display:inline">
    <path
       id="path4375"
       d="m 29.687999,56.25 c 0,11.218 9.094,20.313 20.313,20.313 11.219,0 20.313002,-9.094 20.313002,-20.313 0,-11.219 -9.094002,-20.313 -20.313002,-20.313 -11.219,0 -20.313,9.094 -20.313,20.313 z M 93.750001,21.875 h -21.875 c -1.563,-6.25 -3.125,-12.5 -9.375002,-12.5 h -25 c -6.25,0 -7.813,6.25 -9.375,12.5 h -21.875 c -3.438,0 -6.25,2.813 -6.25,6.25 v 56.25 c 0,3.438 2.813,6.25 6.25,6.25 h 87.500002 c 3.438,0 6.249999,-2.813 6.249999,-6.25 v -56.25 c 0,-3.438 -2.812999,-6.25 -6.249999,-6.25 z M 49.999999,83.984 c -15.317,0 -27.734,-12.417 -27.734,-27.734 0,-15.317 12.417,-27.734 27.734,-27.734 15.318002,0 27.734002,12.417 27.734002,27.734 0,15.317 -12.417,27.734 -27.734002,27.734 z M 93.750001,40.625 h -12.5 v -6.25 h 12.5 z"
       inkscape:connector-curvature="0" />
  </g>
  <g
     inkscape:groupmode="layer"
     id="layer22"
     inkscape:label="Cart"
     style="display:inline">
    <g
       id="g4422"
       transform="translate(0,-3.125)">
      <path
         id="path4405"
         d="m 37.5,90.625 c 0,5.178 -4.197,9.375 -9.375,9.375 -5.178,0 -9.375,-4.197 -9.375,-9.375 0,-5.178 4.197,-9.375 9.375,-9.375 5.178,0 9.375,4.197 9.375,9.375 z"
         inkscape:connector-curvature="0" />
      <path
         id="path4407"
         d="m 100,90.625 c 0,5.178 -4.197,9.375 -9.375,9.375 -5.178,0 -9.375,-4.197 -9.375,-9.375 0,-5.178 4.197,-9.375 9.375,-9.375 5.178,0 9.375,4.197 9.375,9.375 z"
         inkscape:connector-curvature="0" />
      <path
         id="path4409"
         d="M 100,50 V 12.5 H 25 C 25,9.048 22.202,6.25 18.75,6.25 H 0 v 6.25 h 12.5 l 4.695,40.24 C 14.334,55.031 12.5,58.551 12.5,62.5 12.5,69.404 18.096,75 25,75 h 75 V 68.75 H 25 c -3.452,0 -6.25,-2.798 -6.25,-6.25 0,-0.021 0.001,-0.043 0.002,-0.064 z"
         inkscape:connector-curvature="0" />
    </g>
  </g>
  <g
     inkscape:groupmode="layer"
     id="layer23"
     inkscape:label="Checkmark"
     style="display:inline">
    <path
       id="path4439"
       d="M 84.375001,10.9375 37.499999,57.8125 15.624999,35.9375 -1.5e-6,51.5625 37.499999,89.0625 100,26.5625 Z"
       inkscape:connector-curvature="0" />
  </g>
  <g
     inkscape:groupmode="layer"
     id="layer24"
     inkscape:label="Checkmark 2"
     style="display:inline">
    <path
       id="path4465"
       d="M 38.812001,89.618 -0.0419985,51.376 19.233001,32.404 38.812002,51.675 80.766998,10.381 100.042,29.353 38.812002,89.619 Z m -28.274,-38.242 28.274,27.828 50.649997,-49.852 -8.695,-8.558 -41.954997,41.294 -19.579,-19.271 -8.695,8.558 z"
       inkscape:connector-curvature="0" />
  </g>
  <g
     inkscape:groupmode="layer"
     id="layer25"
     inkscape:label="Clock"
     style="display:inline">
    <path
       id="path4503"
       d="M 64.33,73.170001 43.75,52.588998 V 24.999999 h 12.5 v 22.411 l 16.92,16.919 z M 50,-1.5e-6 C 22.386,-1.5e-6 0,22.385998 0,49.999998 0,77.614001 22.386,100 50,100 77.614,100 100,77.614001 100,49.999998 100,22.385998 77.614,-1.5e-6 50,-1.5e-6 Z m 0,87.5000025 c -20.711,0 -37.5,-16.789 -37.5,-37.500003 0,-20.711 16.789,-37.5 37.5,-37.5 20.711,0 37.5,16.789 37.5,37.5 0,20.711003 -16.789,37.500003 -37.5,37.500003 z"
       inkscape:connector-curvature="0" />
  </g>
  <g
     inkscape:groupmode="layer"
     id="layer26"
     inkscape:label="Clock 2"
     style="display:inline">
    <path
       id="path4529"
       d="M 50,0 C 22.386,0 5e-7,22.386 5e-7,50 5e-7,77.614 22.386,100 50,100 77.614,100 100,77.614 100,50 100,22.386 77.614,0 50,0 Z M 64.329999,73.17 43.75,52.589 V 25 h 12.5 v 22.411 l 16.919999,16.919 -8.839,8.839 z"
       inkscape:connector-curvature="0" />
  </g>
  <g
     inkscape:groupmode="layer"
     id="layer27"
     inkscape:label="Compass"
     style="display:inline">
    <path
       id="path4580"
       d="m 53.126488,100.00047 c -0.224,0 -0.451,-0.024 -0.678,-0.075 -1.43,-0.317 -2.448,-1.586 -2.448,-3.051 V 49.999471 H 3.1254881 c -1.465,0 -2.73400005,-1.018 -3.05100005,-2.448 -0.317,-1.43 0.402,-2.889 1.72900005,-3.509 L 95.553488,0.29247099 c 1.191,-0.555 2.602,-0.307 3.531,0.622 0.929002,0.92900001 1.178002,2.34000001 0.622,3.53100001 l -43.75,93.749997 c -0.522,1.117 -1.638,1.804 -2.831,1.804 z m -35.915,-56.249999 h 35.914 c 1.726,0 3.125,1.399 3.125,3.125 v 35.913997 l 34.159,-73.197997 z"
       inkscape:connector-curvature="0" />
  </g>
  <g
     inkscape:groupmode="layer"
     id="layer28"
     inkscape:label="Compass 2"
     style="display:inline">
    <path
       id="path4606"
       d="m 50,2.5e-6 c -27.614,0 -50,22.3859995 -50,49.9999945 0,27.614 22.386,50 50,50 27.614,0 50,-22.386 50,-50 C 100,22.386002 77.614,2.5e-6 50,2.5e-6 Z M 9.375,49.999997 C 9.375,27.563002 27.563,9.3750025 50,9.3750025 c 10.701,0 20.433,4.1389995 27.689,10.9009995 L 37.5,37.499997 l -17.224,40.189 c -6.762,-7.256 -10.901,-16.988 -10.901,-27.689 z m 47.77,7.145 -25.008,10.718 10.718,-25.008 z m -7.145,33.48 c -10.701,0 -20.433,-4.139 -27.689,-10.901 L 62.5,62.499997 79.724,22.311002 c 6.762,7.256 10.901,16.987995 10.901,27.688995 0,22.437 -18.188,40.625 -40.625,40.625 z"
       inkscape:connector-curvature="0" />
  </g>
  <g
     inkscape:groupmode="layer"
     id="layer29"
     inkscape:label="Credit Card"
     style="display:inline">
    <path
       id="path4632"
       d="M 90.625,12.499999 H 9.375 c -5.156,0 -9.375,4.219 -9.375,9.375 v 56.250002 c 0,5.156 4.219,9.375 9.375,9.375 h 81.25 c 5.156,0 9.375,-4.219 9.375,-9.375 V 21.874999 c 0,-5.156 -4.219,-9.375 -9.375,-9.375 z m -81.25,6.25 h 81.25 c 1.694,0 3.125,1.431 3.125,3.125 v 9.375 H 6.25 v -9.375 c 0,-1.694 1.431,-3.125 3.125,-3.125 z m 81.25,62.500002 H 9.375 c -1.694,0 -3.125,-1.431 -3.125,-3.125 V 49.999999 h 87.5 v 28.125002 c 0,1.694 -1.431,3.125 -3.125,3.125 z m -78.125,-18.75 h 6.25 v 12.5 H 12.5 Z m 12.5,0 h 6.25 v 12.5 H 25 Z m 12.5,0 h 6.25 v 12.5 H 37.5 Z"
       inkscape:connector-curvature="0" />
  </g>
  <g
     inkscape:groupmode="layer"
     id="layer30"
     inkscape:label="Cross"
     style="display:inline">
    <path
       id="path4658"
       d="m 99.088999,80.338 c 0,0 -0.001,-10e-4 -0.001,-10e-4 l -30.336,-30.337001 30.336,-30.336999 c 0,0 0.001,-0.001 0.001,-0.001 0.327,-0.327 0.563,-0.708 0.714,-1.115 0.415001,-1.111 0.178,-2.41 -0.715,-3.304 l -14.331,-14.331 c -0.893,-0.893 -2.192,-1.129 -3.304,-0.715 -0.406,0.151 -0.788,0.387 -1.115,0.714 0,0 0,0.001 -10e-4,0.001 L 50,31.249 19.663,0.912 c 0,0 -0.001,-0.001 -0.001,-0.001 C 19.335,0.585 18.954,0.348 18.547,0.197 17.436,-0.218 16.137,0.019 15.243,0.912 L 0.9120005,15.243 c -0.893,0.893 -1.13,2.193 -0.715,3.304 0.152,0.406 0.388,0.788 0.714,1.115 0,0 0.001,0.001 0.001,0.001 L 31.249,49.999999 0.9120005,80.337 c 0,0 -0.001,10e-4 -0.001,10e-4 -0.326,0.327 -0.563,0.708 -0.714,1.115 -0.415,1.111 -0.178,2.41 0.715,3.304 L 15.243,99.088 c 0.894,0.893 2.193,1.13 3.304,0.715 0.406,-0.152 0.788,-0.388 1.115,-0.714 0,0 0.001,-0.001 0.001,-0.001 L 50,68.751 80.336999,99.088 c 0,0 10e-4,0.001 10e-4,0.001 0.327,0.327 0.708,0.563 1.115,0.714 1.111,0.415 2.411,0.178 3.304,-0.715 l 14.331,-14.331 c 0.893,-0.893 1.130001,-2.193 0.715,-3.304 -0.152,-0.406 -0.388,-0.788 -0.714,-1.115 z"
       inkscape:connector-curvature="0" />
  </g>
  <g
     inkscape:groupmode="layer"
     id="layer31"
     inkscape:label="Droplet"
     style="display:inline">
    <path
       id="path4684"
       d="m 84.435821,46.207499 c -6.421,-17.913998 -20.03,-33.998998 -34.436,-46.206998 -14.406,12.208 -28.015,28.293 -34.436,46.206998 -3.971,11.078 -4.363,23.102 1.229,33.73 6.43,12.221 19.398,20.062 33.207,20.062 13.809,0 26.777,-7.842 33.207,-20.062 5.593,-10.629 5.2,-22.653 1.229,-33.73 z m -12.291,27.91 c -4.278,8.13 -12.97,13.383 -22.145,13.383 -5.383,0 -10.598,-1.81 -14.855,-4.946 1.293,0.168 2.601,0.259 3.917,0.259 11.467,0 22.331,-6.564 27.676,-16.723 4.383,-8.329 4.002,-16.977 2.332,-23.861 1.422,2.749 2.628,5.488 3.598,8.196 2.208,6.158 3.909,15.268 -0.524,23.692 z"
       inkscape:connector-curvature="0" />
  </g>
  <g
     inkscape:groupmode="layer"
     id="layer32"
     inkscape:label="Earth"
     style="display:inline">
    <path
       id="path5860"
       d="M 49.999998,0 C 22.385998,0 1.35e-6,22.386 1.35e-6,50 c 0,27.614 22.38599665,50 49.99999665,50 27.614,0 50.000001,-22.386 50.000001,-50 0,-27.614 -22.386001,-50 -50.000001,-50 z m 0,93.75 c -6.148,0 -11.999,-1.271 -17.308,-3.56 l 22.768,-25.614 c 0.508,-0.572 0.789,-1.311 0.789,-2.076 v -9.375 c 0,-1.726 -1.399,-3.125 -3.125,-3.125 -11.034,0 -22.676,-11.471 -22.79,-11.585 -0.586,-0.586 -1.381,-0.915 -2.21,-0.915 h -12.5 c -1.726,0 -3.125,1.399 -3.125,3.125 v 18.75 c 0,1.184 0.669,2.266 1.728,2.795 l 10.772,5.386 V 85.904 C 13.665998,77.998 6.2490013,64.866 6.2490013,49.999 c 0,-6.71 1.513,-13.067 4.2129967,-18.75 h 11.412 c 0.829,0 1.624,-0.329 2.21,-0.915 l 12.5,-12.5 c 0.586,-0.586 0.915,-1.381 0.915,-2.21 v -7.56 c 3.961,-1.179 8.156,-1.815 12.5,-1.815 6.876,0 13.379,1.588 19.168,4.414 -0.405,0.342 -0.798,0.7 -1.176,1.078 -3.542,3.541 -5.492,8.25 -5.492,13.258 0,5.008 1.95,9.717 5.492,13.258 3.558,3.558 8.322,5.495 13.246,5.494 0.309,0 0.619,-0.008 0.929,-0.023 1.349,5.059 3.784,18.228 -0.821,36.361 -0.043,0.17 -0.068,0.341 -0.082,0.51 -7.942,8.113 -19.014,13.15 -31.264,13.15 z"
       inkscape:connector-curvature="0" />
  </g>
  <g
     inkscape:groupmode="layer"
     id="layer33"
     inkscape:label="Eye"
     style="display:inline">
    <path
       id="path5885"
       d="M 50.000001,18.75 C 28.192002,18.75 9.2890015,31.449 1.5e-6,50 9.2890015,68.551 28.192002,81.25 50.000001,81.25 71.807998,81.25 90.710998,68.551 99.999999,50 90.710999,31.449 71.807998,18.75 50.000001,18.75 Z m 24.652997,16.573 c 5.875,3.747 10.854,8.767 14.593,14.677 -3.739,5.91 -8.718,10.93 -14.593,14.677 -7.382,4.709 -15.907,7.198 -24.652997,7.198 -8.746,0 -17.271,-2.489 -24.654,-7.198 -5.875,-3.747 -10.853,-8.767 -14.592999,-14.677 3.739,-5.911 8.717999,-10.93 14.592999,-14.677 0.383001,-0.244 0.769001,-0.481 1.158,-0.713 -0.973,2.669 -1.505,5.549 -1.505,8.554 0,13.807 11.193,25 25,25 13.806997,0 24.999997,-11.193 24.999997,-25 0,-3.005 -0.531999,-5.886 -1.504999,-8.554 0.388,0.232 0.775,0.469 1.158,0.713 v 0 z m -24.652997,5.302 c 0,5.178 -4.197,9.375 -9.375,9.375 -5.178,0 -9.375,-4.197 -9.375,-9.375 0,-5.178 4.197,-9.375 9.375,-9.375 5.178,0 9.375,4.197 9.375,9.375 z"
       inkscape:connector-curvature="0" />
  </g>
  <g
     inkscape:groupmode="layer"
     id="layer34"
     inkscape:label="Fire"
     style="display:inline">
    <path
       id="path5910"
       d="m 31.030007,100 c -6.665,-13.868 -3.115,-21.814 2.007,-29.301 5.609,-8.199 7.055,-16.315 7.055,-16.315 0,0 4.409999,5.732 2.646,14.698 7.789999,-8.672 9.259999,-22.488 8.083999,-27.78 17.609,12.306 25.134,38.951 14.992,58.698 53.943004,-30.521 13.418,-76.189 6.363,-81.333 2.352,5.144 2.798,13.853 -1.953,18.079 C 62.182006,6.25 42.297007,0 42.297007,0 c 2.351999,15.727 -8.525,32.924 -19.013,45.774 -0.369,-6.271 -0.76,-10.598 -4.058,-16.6 -0.74,11.392 -9.4460002,20.679 -11.8040002,32.093 -3.194,15.458 2.392,26.775 23.6080002,38.733 z"
       inkscape:connector-curvature="0" />
  </g>
  <g
     inkscape:groupmode="layer"
     id="layer35"
     inkscape:label="Flag"
     style="display:inline">
    <g
       id="g5956">
      <path
         id="path5939"
         d="M 0,0 H 12.5 V 100 H 0 Z"
         inkscape:connector-curvature="0" />
      <path
         id="path5941"
         d="m 81.25,62.793 c 8.069,0 15.095,-1.952 18.75,-4.834 v -50 c -3.655,2.883 -10.681,4.834 -18.75,4.834 -8.069,0 -15.095,-1.952 -18.75,-4.834 v 50 c 3.655,2.882 10.681,4.834 18.75,4.834 z"
         inkscape:connector-curvature="0" />
      <path
         id="path5943"
         d="M 59.375,3.177 C 54.794,1.23 48.094,0 40.625,0 31.211,0 23.014,1.952 18.75,4.834 v 50 C 23.014,51.951 31.211,50 40.625,50 c 7.469,0 14.169,1.229 18.75,3.177 z"
         inkscape:connector-curvature="0" />
    </g>
  </g>
  <g
     inkscape:groupmode="layer"
     id="layer36"
     inkscape:label="Heart"
     style="display:inline">
    <path
       id="path5972"
       d="m 73.749,3.698999 c -10.511,0 -19.556,8.55 -23.746,17.48 -4.193,-8.93 -13.24,-17.48 -23.752,-17.48 -14.49,0 -26.251,11.762 -26.251,26.253002 0,29.477 29.736,37.206 50.002,66.349 C 69.158,67.338001 100,58.488001 100,29.952001 100,15.460999 88.239,3.698999 73.749,3.698999 Z"
       inkscape:connector-curvature="0" />
  </g>
  <g
     inkscape:groupmode="layer"
     id="layer38"
     inkscape:label="Home"
     style="display:inline">
    <path
       id="path5997"
       d="M 99.999999,59.273 50.000001,20.462 1e-6,59.273 V 43.449 l 50,-38.811 49.999998,38.811 z m -12.5,-1.411 v 37.5 H 62.500001 v -25 h -25 v 25 h -25 v -37.5 l 37.5,-28.125 z"
       inkscape:connector-curvature="0" />
  </g>
  <g
     inkscape:groupmode="layer"
     id="layer39"
     inkscape:label="Home 2"
     style="display:inline">
    <path
       id="path6022"
       d="M 50,4.6875005 0,54.687499 l 9.375,9.375 9.375,-9.375 v 40.625 h 25 v -18.75 h 12.5 v 18.75 h 25 v -40.625 l 9.375,9.375 9.375,-9.375 z m 0,40.6249985 c -3.452,0 -6.25,-2.798 -6.25,-6.25 0,-3.452 2.798,-6.25 6.25,-6.25 3.452,0 6.25,2.798 6.25,6.25 0,3.452 -2.798,6.25 -6.25,6.25 z"
       inkscape:connector-curvature="0" />
  </g>
  <g
     inkscape:groupmode="layer"
     id="layer40"
     inkscape:label="Home 3"
     style="display:inline">
    <path
       id="path6047"
       d="m 100,57.8125 -18.749999,-18.75 v -28.125 h -12.5 v 15.625 l -18.75,-18.75 -50.0000025,50 v 3.125 H 12.499999 v 31.25 h 31.25 v -18.75 h 12.500002 v 18.75 h 31.25 v -31.25 H 100 Z"
       inkscape:connector-curvature="0" />
  </g>
  <g
     inkscape:groupmode="layer"
     id="layer41"
     inkscape:label="Hour Glass"
     style="display:inline">
    <path
       id="path6072"
       d="m 71.191501,50 c 13.453,-8.529 22.559,-24.923 22.559,-43.75 0,-2.117 -0.116,-4.203 -0.34,-6.25 H 6.5894985 c -0.224,2.048 -0.34,4.133 -0.34,6.25 0,18.827 9.1069995,35.221 22.5589995,43.75 -13.452,8.529 -22.5589995,24.923 -22.5589995,43.75 0,2.117 0.116,4.203 0.34,6.25 H 93.410501 c 0.223,-2.047 0.34,-4.133 0.34,-6.25 0,-18.827 -9.107,-35.221 -22.559,-43.75 z M 15.625498,93.75 c 0,-18.253 7.828,-33.732 21.875,-38.839 v -9.823 c -14.047,-5.106 -21.875,-20.585 -21.875,-38.838 v 0 h 68.750003 c 0,18.253 -7.828,33.732 -21.875,38.838 v 9.823 c 14.047,5.107 21.875,20.586 21.875,38.839 z M 60.510501,65.39 c -6.997,-3.969 -7.384,-9.118 -7.385,-12.243 v -6.272 c 0,-3.124 0.371,-8.292 7.397,-12.272 3.76,-2.184 7.012,-5.503 9.477,-9.603 H 30.001498 c 2.467,4.105 5.724,7.426 9.489,9.61 6.997004,3.969 7.383004,9.118 7.385003,12.243 v 6.272 c 0,3.124 -0.370999,8.292 -7.397003,12.272 -7.091999,4.119 -12.376999,12.274 -13.974,22.103 h 48.991003 c -1.598,-9.835 -6.888,-17.993 -13.986,-22.11 z"
       inkscape:connector-curvature="0" />
  </g>
  <g
     inkscape:groupmode="layer"
     id="layer42"
     inkscape:label="Info"
     style="display:inline">
    <g
       id="g6118">
      <path
         id="path6101"
         d="M 43.75,29.688 C 43.75,27.11 45.859,25 48.438,25 h 3.125 c 2.578,0 4.688,2.109 4.688,4.688 v 3.125 c 0,2.578 -2.109,4.688 -4.688,4.688 h -3.125 c -2.578,0 -4.688,-2.109 -4.688,-4.688 z"
         inkscape:connector-curvature="0" />
      <path
         id="path6103"
         d="m 62.5,75 h -25 v -6.25 h 6.25 V 50 H 37.5 v -6.25 h 18.75 v 25 h 6.25 z"
         inkscape:connector-curvature="0" />
      <path
         id="path6105"
         d="M 50,0 C 22.386,0 0,22.386 0,50 0,77.614 22.386,100 50,100 77.614,100 100,77.614 100,50 100,22.386 77.614,0 50,0 Z m 0,90.625 C 27.563,90.625 9.375,72.437 9.375,50 9.375,27.563 27.563,9.375 50,9.375 72.437,9.375 90.625,27.563 90.625,50 90.625,72.437 72.437,90.625 50,90.625 Z"
         inkscape:connector-curvature="0" />
    </g>
  </g>
  <g
     inkscape:groupmode="layer"
     id="layer43"
     inkscape:label="Key"
     style="display:inline">
    <path
       id="path6134"
       d="m 68.750001,0 c -17.259,0 -31.250002,13.991 -31.250002,31.25 0,1.956 0.180999,3.869 0.525,5.725 L -1.5e-6,75 v 18.75 c 0,3.452 2.798,6.25 6.25,6.25 h 6.2500005 v -6.25 h 12.5 v -12.5 h 12.5 v -12.5 h 12.500002 l 8.11,-8.11 c 3.321,1.203 6.904,1.86 10.64,1.86 C 86.009001,62.5 100,48.509 100,31.25 100,13.991 86.009001,0 68.750001,0 Z m 9.363,31.262 c -5.178,0 -9.375,-4.197 -9.375,-9.375 0,-5.178 4.197,-9.375 9.375,-9.375 5.178,0 9.375,4.197 9.375,9.375 0,5.178 -4.197,9.375 -9.375,9.375 z"
       inkscape:connector-curvature="0" />
  </g>
  <g
     inkscape:groupmode="layer"
     id="layer44"
     inkscape:label="Key 2"
     style="display:inline">
    <path
       id="path6147"
       d="m 97.865075,30.687211 -9.874,-9.873 c -2.421,-2.421 -6.384,-6.384 -8.805,-8.805 L 69.312079,2.1362114 c -2.421,-2.42100001 -6.734,-2.84800001 -9.583,-0.949 l -26.996,17.9969996 c -2.849,1.9 -3.928,5.96 -2.396,9.022 l 6.883,13.767 c 0.21,0.421 0.454,0.869 0.722,1.334 l -34.8170001,34.817 -3.12500003003,21.875 H 18.750079 v -6.25 h 12.5 v -12.5 h 12.5 v -12.5 h 12.5 v -6.952 c 0.625,0.372 1.224,0.705 1.777,0.981 l 13.766996,6.884 c 3.063,1.531 7.123,0.453 9.022,-2.396 l 17.997,-26.996 c 1.899995,-2.849 1.471995,-7.161 -0.949,-9.583 z m -83.153996,52.772 -4.419,-4.419 30.427,-30.427 4.419,4.419 z m 74.842996,-42.077 -4.42,4.42 c -1.215,1.215 -3.204,1.215 -4.419,0 l -26.516996,-26.517 c -1.215,-1.215 -1.215,-3.204 0,-4.419 l 4.42,-4.42 c 1.215,-1.2149996 3.204,-1.2149996 4.419,0 l 26.516996,26.517 c 1.215,1.215 1.215,3.204 0,4.419 z"
       inkscape:connector-curvature="0" />
  </g>
  <g
     inkscape:groupmode="layer"
     id="layer45"
     inkscape:label="Leaf"
     style="display:inline">
    <path
       id="path6160"
       d="m 98.689854,13.112 c -10.816,-8.196 -27.459,-13.089 -44.522,-13.089 -21.105,0 -38.303,7.369 -47.1840001,20.217 -4.171,6.034 -6.47799999,13.179 -6.85599999,21.238 -0.337,7.175 0.868,15.11 3.58199999,23.647 C 12.974854,37.353 38.848854,15.603 68.676854,15.603 c 0,0 -27.913,7.347 -45.461,30.097 -0.011,0.013 -0.244,0.302 -0.646,0.849 -3.523,4.715 -6.596,10.074 -8.894,16.145 C 9.7818539,71.955 6.1778539,84.662 6.1778539,99.977 H 18.677854 c 0,0 -1.897,-11.936 1.402,-25.663 5.458,0.738 10.338,1.104 14.732,1.104 11.492,0 19.665,-2.486 25.721,-7.825 5.427,-4.783 8.418,-11.21 11.584,-18.013 4.836,-10.391 10.318,-22.169 26.236,-31.265 0.911,-0.521 1.5,-1.464 1.568,-2.511 0.068,-1.047 -0.395,-2.059 -1.231,-2.693 z"
       inkscape:connector-curvature="0" />
  </g>
  <g
     inkscape:groupmode="layer"
     id="layer46"
     inkscape:label="Library"
     style="display:inline">
    <g
       id="g6187"
       transform="matrix(0.90428715,0,0,0.96610169,1.9597452,1.6949155)">
      <path
         id="path6173"
         d="M 100,93.75 V 87.5 H 93.75 V 50 H 100 V 43.75 H 81.25 V 50 H 87.5 V 87.5 H 68.75 V 50 H 75 V 43.75 H 56.25 V 50 H 62.5 V 87.5 H 43.75 V 50 H 50 V 43.75 H 31.25 V 50 H 37.5 V 87.5 H 18.75 V 50 H 25 V 43.75 H 6.25 V 50 H 12.5 V 87.5 H 6.25 v 6.25 H 0 V 100 h 106.25 v -6.25 z"
         inkscape:connector-curvature="0" />
      <path
         id="path6175"
         d="m 50,0 h 6.25 l 50,31.25 V 37.5 H 0 v -6.25 z"
         inkscape:connector-curvature="0" />
    </g>
  </g>
  <g
     inkscape:groupmode="layer"
     id="layer47"
     inkscape:label="Lifebuoy"
     style="display:inline">
    <path
       id="path6191"
       d="M 49.999999,0 C 22.385998,0 -1.5e-6,22.386 -1.5e-6,50 c 0,27.614 22.3859995,50 50.0000005,50 C 77.614001,100 100,77.614 100,50 100,22.386 77.614001,0 49.999999,0 Z m -18.75,50 c 0,-10.355 8.395,-18.75 18.75,-18.75 10.355,0 18.75,8.395 18.75,18.75 0,10.355 -8.395,18.75 -18.75,18.75 -10.355,0 -18.75,-8.395 -18.75,-18.75 z m 59.178002,16.746 v 0 l -17.326,-7.177 c 1.222,-2.948 1.898,-6.179 1.898,-9.569 0,-3.39 -0.676,-6.621 -1.898,-9.569 l 17.326,-7.177 c 2.139,5.158 3.322,10.813 3.322,16.746 0,5.933 -1.183,11.587 -3.322,16.746 z M 66.745998,9.572 v 0 0 l -7.177,17.326 c -2.948,-1.222 -6.179,-1.898 -9.569,-1.898 -3.39,0 -6.621,0.676 -9.569,1.898 l -7.177,-17.326 c 5.158,-2.139 10.814,-3.322 16.746,-3.322 5.932,0 11.587,1.183 16.746,3.322 z M 9.5719985,33.254 26.897998,40.431 c -1.222,2.948 -1.899,6.179 -1.899,9.569 0,3.39 0.676,6.621 1.898,9.569 L 9.5709985,66.746 c -2.139,-5.158 -3.322,-10.813 -3.322,-16.746 0,-5.933 1.183,-11.587 3.322,-16.746 z m 23.6819995,57.174 7.177,-17.326 c 2.948,1.222 6.179,1.898 9.569,1.898 3.39,0 6.621,-0.676 9.569,-1.898 l 7.177,17.326 c -5.158,2.139 -10.813,3.322 -16.746,3.322 -5.933,0 -11.587,-1.183 -16.746,-3.322 z"
       inkscape:connector-curvature="0" />
  </g>
  <g
     inkscape:groupmode="layer"
     id="layer48"
     inkscape:label="Location"
     style="display:inline">
    <path
       id="path6204"
       d="m 50.000002,0 c -17.258999,0 -31.25,13.991 -31.25,31.25 0,31.25 31.25,68.75 31.25,68.75 0,0 31.249995,-37.5 31.249995,-68.75 C 81.249997,13.991 67.259002,0 50.000002,0 Z m 0,50 c -10.354999,0 -18.75,-8.395 -18.75,-18.75 0,-10.355 8.395001,-18.75 18.75,-18.75 10.355,0 18.75,8.395 18.75,18.75 0,10.355 -8.395,18.75 -18.75,18.75 z"
       inkscape:connector-curvature="0" />
  </g>
  <g
     inkscape:groupmode="layer"
     id="layer49"
     inkscape:label="Location 2"
     style="display:inline">
    <path
       id="path6229"
       d="M 50,0 C 32.741,0 18.75,13.991 18.75,31.25 18.75,62.5 50,100 50,100 50,100 81.25,62.5 81.25,31.25 81.25,13.991 67.259,0 50,0 Z m 0,50.391 c -10.571,0 -19.141,-8.57 -19.141,-19.141 0,-10.571 8.57,-19.141 19.141,-19.141 10.570999,0 19.141001,8.57 19.141001,19.141 0,10.571 -8.570002,19.141 -19.141001,19.141 z M 37.890999,31.25 c 0,-6.688 5.422,-12.109 12.109,-12.109 6.687,0 12.109,5.422 12.109,12.109 0,6.688 -5.422,12.109 -12.109,12.109 -6.687,0 -12.109,-5.422 -12.109,-12.109 z"
       inkscape:connector-curvature="0" />
  </g>
  <g
     inkscape:groupmode="layer"
     id="layer50"
     inkscape:label="Lock"
     style="display:inline">
    <path
       id="path6254"
       d="m 76.563501,40.6245 h -1.563 v -18.75 c 0,-10.339 -8.411,-18.75 -18.750003,-18.75 h -12.5 c -10.339,0 -18.75,8.411 -18.75,18.75 v 18.75 h -1.562999 c -2.578001,0 -4.688,2.109 -4.688,4.688 v 46.875 c 0,2.578 2.109,4.688 4.688,4.688 h 53.125002 c 2.578,0 4.688,-2.109 4.688,-4.688 v -46.875 c 0,-2.578 -2.108999,-4.688 -4.688,-4.688 z m -39.063003,-18.75 c 0,-3.446 2.804,-6.25 6.25,-6.25 h 12.5 c 3.446,0 6.250003,2.804 6.250003,6.25 v 18.75 H 37.500498 Z"
       inkscape:connector-curvature="0" />
  </g>
  <g
     inkscape:groupmode="layer"
     id="layer51"
     inkscape:label="Man"
     style="display:inline">
    <g
       id="g6295"
       transform="translate(3.1245)">
      <path
         id="path6281"
         d="m 56.25,9.375 c 0,5.178 -4.197,9.375 -9.375,9.375 C 41.697,18.75 37.5,14.553 37.5,9.375 37.5,4.197 41.697,0 46.875,0 52.053,0 56.25,4.197 56.25,9.375 Z"
         inkscape:connector-curvature="0" />
      <path
         id="path6283"
         d="M 56.25,25 H 37.5 c -3.452,0 -6.25,2.798 -6.25,6.25 V 62.5 H 37.5 V 100 h 7.813 V 62.5 h 3.125 V 100 h 7.813 V 62.5 h 6.25 V 31.25 c 0,-3.452 -2.798,-6.25 -6.25,-6.25 z"
         inkscape:connector-curvature="0" />
    </g>
  </g>
  <g
     inkscape:groupmode="layer"
     id="layer52"
     inkscape:label="Man Woman"
     style="display:inline">
    <g
       id="g6337">
      <path
         id="path6317"
         d="M 25,9.375 C 25,14.553 20.803,18.75 15.625,18.75 10.447,18.75 6.25,14.553 6.25,9.375 6.25,4.197 10.447,0 15.625,0 20.803,0 25,4.197 25,9.375 Z"
         inkscape:connector-curvature="0" />
      <path
         id="path6319"
         d="m 81.25,9.375 c 0,5.178 -4.197,9.375 -9.375,9.375 C 66.697,18.75 62.5,14.553 62.5,9.375 62.5,4.197 66.697,0 71.875,0 77.053,0 81.25,4.197 81.25,9.375 Z"
         inkscape:connector-curvature="0" />
      <path
         id="path6321"
         d="M 25,25 H 6.25 C 2.798,25 0,27.798 0,31.25 V 62.5 H 6.25 V 100 h 7.813 V 62.5 h 3.125 V 100 h 7.813 V 62.5 h 6.25 V 31.25 c 0,-3.452 -2.798,-6.25 -6.25,-6.25 z"
         inkscape:connector-curvature="0" />
      <path
         id="path6323"
         d="M 95.215,50 100,46.533 86.984,26.404 c -0.578,-0.877 -1.558,-1.405 -2.609,-1.405 h -25 c -1.05,0 -2.03,0.528 -2.609,1.405 L 43.75,46.533 48.535,50 59.34,35.977 63.096,44.741 50,68.75 H 61.979 L 64.062,100 h 6.25 V 68.75 h 3.125 V 100 h 6.25 L 81.77,68.75 H 93.749 L 80.653,44.74 84.409,35.976 95.214,49.999 Z"
         inkscape:connector-curvature="0" />
    </g>
  </g>
  <g
     inkscape:groupmode="layer"
     id="layer53"
     inkscape:label="Map"
     style="display:inline">
    <g
       id="g6374">
      <path
         id="path6357"
         d="M 0,18.75 31.25,6.25 v 75 L 0,93.75 Z"
         inkscape:connector-curvature="0" />
      <path
         id="path6359"
         d="m 37.5,3.125 31.25,18.75 V 93.75 L 37.5,78.125 Z"
         inkscape:connector-curvature="0" />
      <path
         id="path6361"
         d="m 75,21.875 25,-18.75 v 75 l -25,18.75 z"
         inkscape:connector-curvature="0" />
    </g>
  </g>
  <g
     inkscape:groupmode="layer"
     id="layer54"
     inkscape:label="Map 2"
     style="display:inline">
    <path
       id="path6390"
       d="M 65.625002,18.75 34.375002,6.2500002 -2e-6,18.75 v 75 l 34.375004,-12.5 31.25,12.5 L 100,81.25 V 6.2500002 Z m -28.125,-4.519 25,10 v 61.537 l -25,-10 z m -31.250004,8.897 25,-9.091 v 61.699 l -25,9.091 z m 87.500004,53.744 -25,9.091 V 24.264 l 25,-9.091 z"
       inkscape:connector-curvature="0" />
  </g>
  <g
     inkscape:groupmode="layer"
     id="layer55"
     inkscape:label="Mug"
     style="display:inline">
    <path
       id="path6415"
       d="m 93.750001,28.125 h -18.75 V 18.75 c 0,-8.629 -16.789,-15.625 -37.500002,-15.625 -20.711,0 -37.5000005,6.996 -37.5000005,15.625 v 62.5 c 0,8.629 16.7890005,15.625 37.5000005,15.625 20.711003,0 37.500002,-6.996 37.500002,-15.625 v -9.375 h 18.75 c 3.452,0 6.249999,-2.798 6.249999,-6.25 v -31.25 c 0,-3.452 -2.797999,-6.25 -6.249999,-6.25 z M 17.192998,22.109 c -3.613,-1.19 -5.802,-2.465 -6.974,-3.359 1.172,-0.894 3.361,-2.169 6.974001,-3.359 5.658,-1.864 12.87,-2.891 20.307,-2.891 7.437003,0 14.649002,1.027 20.307003,2.891 3.613,1.19 5.802,2.465 6.974,3.359 -1.172,0.894 -3.361,2.169 -6.974,3.359 -5.658,1.864 -12.87,2.891 -20.307003,2.891 -7.437,0 -14.649,-1.027 -20.307001,-2.891 z m 70.307003,37.266 h -12.5 v -18.75 h 12.5 z"
       inkscape:connector-curvature="0" />
  </g>
  <g
     inkscape:groupmode="layer"
     id="layer56"
     inkscape:label="Music"
     style="display:inline">
    <path
       id="path6440"
       d="m 93.749998,0 h 6.25 v 71.875 c 0,8.629 -9.794,15.625 -21.875,15.625 -12.080996,0 -21.874996,-6.996 -21.874996,-15.625 0,-8.63 9.794,-15.625 21.874996,-15.625 6.121,0 11.654,1.797 15.625,4.691 V 25 L 43.750002,36.111 v 48.264 c 0,8.629 -9.794,15.625 -21.875,15.625 -12.081,0 -21.875,-6.996 -21.875,-15.625 0,-8.63 9.794,-15.625 21.875,-15.625 6.121,0 11.654,1.797 15.625,4.691 V 12.5 Z"
       inkscape:connector-curvature="0" />
  </g>
  <g
     inkscape:groupmode="layer"
     id="layer57"
     inkscape:label="Newspaper"
     style="display:inline">
    <path
       id="path6465"
       d="M 87.499999,25 V 12.5 H 1e-6 v 68.75 c 0,3.452 2.798,6.25 6.25,6.25 h 84.374998 c 5.178,0 9.375,-4.197 9.375,-9.375 V 25 Z m -6.25,56.25 H 6.250001 v -62.5 h 74.999998 z m -68.749998,-50 H 74.999999 V 37.5 H 12.500001 Z m 37.5,12.5 H 74.999999 V 50 H 50.000001 Z m 0,12.5 H 74.999999 V 62.5 H 50.000001 Z m 0,12.5 H 68.749999 V 75 H 50.000001 Z m -37.5,-25 h 31.25 V 75 h -31.25 z"
       inkscape:connector-curvature="0" />
  </g>
  <g
     inkscape:groupmode="layer"
     id="layer58"
     inkscape:label="Notification"
     style="display:inline">
    <path
       id="path6490"
       d="m 50.000001,9.375 c -10.851003,0 -21.053003,4.226 -28.726002,11.899 -7.673,7.673 -11.8990005,17.875 -11.8990005,28.726 0,10.851 4.2260005,21.053 11.8990005,28.726 7.673,7.673 17.875,11.899 28.726002,11.899 10.851,0 21.053,-4.226 28.726,-11.899 7.673,-7.673 11.899,-17.875 11.899,-28.726 0,-10.851 -4.226,-21.053 -11.899,-28.726 -7.673,-7.673 -17.875,-11.899 -28.726,-11.899 z m 0,-9.375 V 0 C 77.614001,0 100,22.386 100,50 100,77.614 77.614001,100 50.000001,100 22.385998,100 -1.5e-6,77.614 -1.5e-6,50 -1.5e-6,22.386 22.385998,0 50.000001,0 Z m -6.250003,68.75 h 12.500003 v 12.5 H 43.749999 Z m 0,-50 h 12.500003 v 37.5 H 43.749999 Z"
       inkscape:connector-curvature="0" />
  </g>
  <g
     inkscape:groupmode="layer"
     id="layer59"
     inkscape:label="Office"
     style="display:inline">
    <path
       id="path6515"
       d="M -5e-7,100 H 50 V 0 H -5e-7 Z M 31.25,12.5 h 12.5 V 25 h -12.5 z m 0,25 h 12.5 V 50 h -12.5 z m 0,25 h 12.5 V 75 H 31.25 Z M 6.2499995,12.5 H 18.75 V 25 H 6.2499995 Z m 0,25 H 18.75 V 50 H 6.2499995 Z m 0,25 H 18.75 V 75 H 6.2499995 Z M 56.25,31.25 H 100 V 37.5 H 56.25 Z m 0,68.75 h 12.5 V 75 H 87.5 v 25 H 100 V 43.75 H 56.25 Z"
       inkscape:connector-curvature="0" />
  </g>
  <g
     inkscape:groupmode="layer"
     id="layer60"
     inkscape:label="Phone"
     style="display:inline">
    <path
       id="path6540"
       d="m 71.874997,59.375 c -6.25,6.25 -6.25,12.5 -12.5,12.5 -6.249995,0 -12.499995,-6.25 -18.749995,-12.5 -6.25,-6.25 -12.5,-12.5 -12.5,-18.75 0,-6.25 6.25,-6.25 12.5,-12.5 6.25,-6.25 -12.5,-25 -18.75,-25 -6.25,0 -18.7499995,18.75 -18.7499995,18.75 0,12.5 12.8420005,37.842 24.9999995,50 12.158,12.158 37.499995,25 49.999995,25 0,0 18.75,-12.5 18.75,-18.75 0,-6.25 -18.75,-25 -25,-18.75 z"
       inkscape:connector-curvature="0" />
  </g>
  <g
     inkscape:groupmode="layer"
     id="layer61"
     inkscape:label="Phone hang"
     style="display:inline">
    <path
       id="path6565"
       d="m 99.352835,53.12402 c 0.782005,5.418 1.291005,12.831 -1.139,15.669 -4.018,4.692 -29.464,4.692 -29.464,-4.692 0,-4.726 4.185,-7.826 0.167,-12.517 -3.952,-4.615 -11.038,-4.69 -18.917004,-4.692 -7.879,10e-4 -14.965,0.076 -18.917,4.692 -4.018,4.692 0.167,7.791 0.167,12.517 0,9.383 -25.4459995,9.383 -29.4639995,4.692 -2.42900001,-2.837 -1.92100001,-10.25 -1.13900001,-15.669 0.60200001,-3.617 2.12100001,-7.519 6.98700001,-12.499 0,0 0,0 0,0 7.2989995,-6.811 18.3439995,-12.377 41.9749995,-12.497 v -0.003 c 0.131,0 0.26,0.001 0.391,0.001 0.131,0 0.259,-0.001 0.391,-0.001 v 0.003 c 23.631004,0.12 34.677004,5.686 41.975004,12.497 0,0 0,0 0,0 4.866,4.98 6.386,8.882 6.987,12.499 z"
       inkscape:connector-curvature="0" />
  </g>
  <g
     inkscape:groupmode="layer"
     id="layer62"
     inkscape:label="Power"
     style="display:inline">
    <path
       id="path6590"
       d="M 37.500002,0 2.5e-6,50 H 37.500002 l -25,50 87.499995,-62.5 H 50.000002 L 87.499997,0 Z"
       inkscape:connector-curvature="0" />
  </g>
  <g
     inkscape:groupmode="layer"
     id="layer63"
     inkscape:label="Power Cord"
     style="display:inline">
    <g
       id="g6631"
       transform="translate(-3.18575,3.18575)">
      <path
         id="path6617"
         d="M 100,27.588 91.162,18.75 73.706,36.206 63.794,26.294 81.25,8.838 72.412,0 54.956,17.456 43.75,6.25 l -8.46,8.459 50,50 L 93.749,56.25 82.543,45.044 99.999,27.588 Z"
         inkscape:connector-curvature="0" />
      <path
         id="path6619"
         d="M 77.543,65.8 34.201,22.458 C 24.844,33.679 14.228,51.018 21.565,65.936 L 8.65,78.851 c -3.038,3.038 -3.038,8.01 0,11.048 l 1.451,1.451 c 3.038,3.038 8.01,3.038 11.049,0 L 34.065,78.436 C 48.983,85.773 66.323,75.158 77.544,65.8 Z"
         inkscape:connector-curvature="0" />
    </g>
  </g>
  <g
     inkscape:groupmode="layer"
     id="layer64"
     inkscape:label="Price Tags"
     style="display:inline">
    <g
       id="g6663"
       transform="matrix(0.78306209,0,0,0.84010763,0.29640631,8.8123583)">
      <path
         id="path6649"
         d="m 120.313,0 h -37.5 C 80.235,0 76.634,1.492 74.811,3.315 L 28.315,49.811 c -1.823,1.823 -1.823,4.806 0,6.629 l 40.246,40.246 c 1.823,1.823 4.806,1.823 6.629,0 L 121.686,50.19 C 123.509,48.367 125,44.766 125,42.188 V 4.688 C 125,2.11 122.891,0 120.312,0 Z M 96.875,37.5 c -5.178,0 -9.375,-4.197 -9.375,-9.375 0,-5.178 4.197,-9.375 9.375,-9.375 5.178,0 9.375,4.197 9.375,9.375 0,5.178 -4.197,9.375 -9.375,9.375 z"
         inkscape:connector-curvature="0" />
      <path
         id="path6651"
         d="M 12.5,53.125 65.625,0 H 57.812 C 55.234,0 51.633,1.492 49.81,3.315 L 3.314,49.811 c -1.823,1.823 -1.823,4.806 0,6.629 L 43.56,96.686 c 1.823,1.823 4.806,1.823 6.629,0 L 53.124,93.751 12.499,53.126 Z"
         inkscape:connector-curvature="0" />
    </g>
  </g>
  <g
     inkscape:groupmode="layer"
     id="layer65"
     inkscape:label="Pushpin"
     style="display:inline">
    <path
       id="path6679"
       d="m 53.125,0 -9.375,9.375 9.375,9.375 -21.875,25 H 9.375 L 26.563,60.938 0,96.154 V 100 H 3.846 L 39.062,73.437 56.25,90.625 V 68.75 l 25,-21.875 9.375,9.375 L 100,46.875 Z M 43.75,53.125 37.5,46.875 59.375,25 l 6.25,6.25 z"
       inkscape:connector-curvature="0" />
  </g>
  <g
     inkscape:groupmode="layer"
     id="layer66"
     inkscape:label="Question"
     style="display:inline">
    <path
       id="path6692"
       d="m 43.75,68.75 h 12.5 v 12.5 H 43.75 Z M 68.75,25 C 72.202,25 75,27.798 75,31.25 V 50 L 56.25,62.5 H 43.75 V 56.25 L 62.5,43.75 V 37.5 H 31.25 V 25 Z M 50,9.375 C 39.149,9.375 28.947,13.601 21.274,21.274 13.601,28.947 9.375,39.149 9.375,50 c 0,10.851 4.226,21.053 11.899,28.726 7.673,7.673 17.875,11.899 28.726,11.899 10.851,0 21.053,-4.226 28.726,-11.899 C 86.399,71.053 90.625,60.851 90.625,50 90.625,39.149 86.399,28.947 78.726,21.274 71.053,13.601 60.851,9.375 50,9.375 Z M 50,0 v 0 c 27.614,0 50,22.386 50,50 0,27.614 -22.386,50 -50,50 C 22.386,100 0,77.614 0,50 0,22.386 22.386,0 50,0 Z"
       inkscape:connector-curvature="0" />
  </g>
  <g
     inkscape:groupmode="layer"
     id="layer67"
     inkscape:label="Radio Checked"
     style="display:inline">
    <path
       id="path6717"
       d="M 50.000002,0 C 22.386002,0 1.5e-6,22.386 1.5e-6,49.999999 1.5e-6,77.614 22.386001,100 50.000001,100 77.613998,100 99.999999,77.614 99.999999,49.999999 99.999999,22.386 77.613998,0 50.000002,0 Z m 0,87.5 c -20.711,0 -37.500001,-16.789 -37.500001,-37.500001 0,-20.710999 16.789,-37.499999 37.5,-37.499999 20.710997,0 37.499998,16.789 37.499998,37.499999 C 87.499999,70.711 70.710999,87.5 50.000002,87.5 Z M 31.250001,49.999999 c 0,-10.355 8.395,-18.749999 18.75,-18.749999 10.354997,0 18.749998,8.394999 18.749998,18.749999 0,10.355001 -8.395,18.750001 -18.749998,18.750001 -10.355,0 -18.75,-8.395 -18.75,-18.750001 z"
       inkscape:connector-curvature="0" />
  </g>
  <g
     inkscape:groupmode="layer"
     id="layer68"
     inkscape:label="Radio Checked 2"
     style="display:inline">
    <path
       id="path6742"
       d="M 50.000001,0 C 22.386001,0 5e-7,22.386 5e-7,50 5e-7,77.614 22.386,100 50,100 77.614,100 100,77.614 100,50 100,22.386 77.614,0 50.000001,0 Z m 0,62.5 C 43.096001,62.5 37.5,56.904 37.5,50 c 0,-6.904 5.596001,-12.5 12.5,-12.5 6.904,0 12.5,5.596 12.5,12.5 0,6.904 -5.596,12.5 -12.499999,12.5 z"
       inkscape:connector-curvature="0" />
  </g>
  <g
     inkscape:groupmode="layer"
     id="layer69"
     inkscape:label="Road Perspective"
     style="display:inline">
    <path
       id="path6767"
       d="M 68.75,100 H 100 L 75,-1e-6 H 56.25 l 3.125,25.000002 H 40.625 L 43.75,-1e-6 H 25 L 0,100 h 31.25 l 3.125,-24.999999 h 31.25 z m -32.812,-37.499999 3.125,-25 h 21.875 l 3.125,25 z"
       inkscape:connector-curvature="0" />
  </g>
  <g
     inkscape:groupmode="layer"
     id="layer70"
     inkscape:label="Rocket"
     style="display:inline">
    <path
       id="path6792"
       d="m 68.749999,6.25 -31.25,31.25 H 18.750001 l -18.75,25 c 0,0 19.865,-5.532 31.452,-2.938 L 1e-6,100 41.200999,67.955 c 5.746,13.15 -3.701,32.045 -3.701,32.045 l 25,-18.75 V 62.5 l 31.25,-31.25 6.25,-31.25 z"
       inkscape:connector-curvature="0" />
  </g>
  <g
     inkscape:groupmode="layer"
     id="layer71"
     inkscape:label="Spoon Knife"
     style="display:inline">
    <path
       id="path6817"
       d="m 26.561998,0 c -10.355,0 -18.7499995,9.794 -18.7499995,21.875 0,10.344 6.1539995,19.01 14.4239995,21.289 l -3.104,50.598 c -0.21,3.431 2.430001,6.238 5.867,6.238 h 3.125 c 3.438001,0 6.078001,-2.807 5.867001,-6.238 l -3.104,-50.598 C 39.156998,40.885 45.311002,32.219 45.311002,21.875 45.311001,9.794 36.915998,0 26.560998,0 Z m 63.021003,0 -5.208,31.25 h -3.906 L 77.865001,0 h -2.604 l -2.604,31.25 h -3.906 L 63.543001,0 h -2.604 v 40.625 c 0,1.726 1.399,3.125 3.125,3.125 h 8.138 l -3.068,50.012 c -0.209999,3.431 2.430001,6.238 5.867,6.238 h 3.125 c 3.438001,0 6.078001,-2.807 5.867,-6.238 L 80.925002,43.75 h 8.137999 c 1.726,0 3.125,-1.399 3.125,-3.125 V 0 h -2.604 z"
       inkscape:connector-curvature="0" />
  </g>
  <g
     inkscape:groupmode="layer"
     id="layer72"
     inkscape:label="Star Empty"
     style="display:inline">
    <path
       id="path6842"
       d="m 100,38.7745 -34.548999,-5.02 -15.451,-31.307 -15.451003,31.307 -34.5489995,5.02 25.0000005,24.369 -5.902,34.409 30.902002,-16.246 30.902,16.246 -5.902,-34.409 z m -49.999999,34.81 -21.822003,11.473 4.168001,-24.3 -17.655,-17.209 24.398,-3.545 10.911002,-22.109 10.912001,22.109 24.397999,3.545 -17.655,17.209 4.168001,24.3 -21.822001,-11.473 z"
       inkscape:connector-curvature="0" />
  </g>
  <g
     inkscape:groupmode="layer"
     id="layer73"
     inkscape:label="Star Full"
     style="display:inline">
    <path
       id="path6867"
       d="m 100,38.7745 -34.548999,-5.02 -15.451,-31.307 -15.451003,31.307 -34.5489995,5.02 25.0000005,24.369 -5.902,34.409 30.902002,-16.246 30.902,16.246 -5.902,-34.409 z"
       inkscape:connector-curvature="0" />
  </g>
  <g
     inkscape:groupmode="layer"
     id="layer74"
     inkscape:label="Stopwatch"
     style="display:inline">
    <path
       id="path6892"
       d="M 53.125002,18.868 V 12.5 H 65.624997 V 6.25 c 0,-3.452 -2.798,-6.25 -6.25,-6.25 H 40.625002 c -3.452,0 -6.25,2.798 -6.25,6.25 v 6.25 h 12.5 v 6.368 c -20.976,1.596 -37.4999995,19.121 -37.4999995,40.507 0,22.437 18.1879995,40.625 40.6249995,40.625 22.436995,0 40.624995,-18.188 40.624995,-40.625 0,-21.385 -16.524,-38.911 -37.499995,-40.507 z m 18.971995,62.604 c -5.903,5.902 -13.75,9.153 -22.096995,9.153 -8.347,0 -16.195,-3.251 -22.097,-9.153 -5.902,-5.902 -9.153,-13.75 -9.153,-22.097 0,-8.347 3.251,-16.195 9.153,-22.097 5.668001,-5.668 13.13,-8.888 21.105001,-9.136 l -2.117001,30.666 c -0.182,2.567 1.217,3.692 3.109,3.692 1.892,0 3.291,-1.124 3.109,-3.692 l -2.117,-30.666 c 7.974995,0.247 15.436995,3.468 21.104995,9.136 5.902,5.902 9.153,13.75 9.153,22.097 0,8.347 -3.251,16.195 -9.153,22.097 z"
       inkscape:connector-curvature="0" />
    <path
       inkscape:connector-curvature="0"
       d="M 53.125002,18.868 V 12.5 H 65.624997 V 6.25 c 0,-3.452 -2.798,-6.25 -6.25,-6.25 H 40.625002 c -3.452,0 -6.25,2.798 -6.25,6.25 v 6.25 h 12.5 v 6.368 c -20.976,1.596 -37.4999995,19.121 -37.4999995,40.507 0,22.437 18.1879995,40.625 40.6249995,40.625 22.436995,0 40.624995,-18.188 40.624995,-40.625 0,-21.385 -16.524,-38.911 -37.499995,-40.507 z m 18.971995,62.604 c -5.903,5.902 -13.75,9.153 -22.096995,9.153 -8.347,0 -16.195,-3.251 -22.097,-9.153 -5.902,-5.902 -9.153,-13.75 -9.153,-22.097 0,-8.347 3.251,-16.195 9.153,-22.097 5.668001,-5.668 13.13,-8.888 21.105001,-9.136 l -2.117001,30.666 c -0.182,2.567 1.217,3.692 3.109,3.692 1.892,0 3.291,-1.124 3.109,-3.692 l -2.117,-30.666 c 7.974995,0.247 15.436995,3.468 21.104995,9.136 5.902,5.902 9.153,13.75 9.153,22.097 0,8.347 -3.251,16.195 -9.153,22.097 z"
       id="path6903" />
  </g>
  <g
     inkscape:groupmode="layer"
     id="layer75"
     inkscape:label="Trophy"
     style="display:inline">
    <path
       id="path6919"
       d="M 81.250001,18.75 V 6.25 H 18.749998 v 12.5 H -1.5e-6 v 12.5 c 0,10.355 8.394,18.75 18.7500005,18.75 1.961,0 3.851,-0.301 5.626999,-0.86 4.509,6.446 11.388001,11.113 19.373001,12.734 V 81.25 h -6.25 c -6.904,0 -12.5,5.596 -12.5,12.5 h 50.000002 c 0,-6.904 -5.596,-12.5 -12.5,-12.5 h -6.25 V 61.874 c 7.986,-1.621 14.864,-6.288 19.373,-12.734 1.776,0.558 3.666,0.86 5.627,0.86 C 91.606002,50 100,41.605 100,31.25 V 18.75 Z M 18.749998,42.578 c -6.246,0 -11.3279995,-5.082 -11.3279995,-11.328 V 25 H 18.749999 v 6.25 c 0,3.924 0.726,7.679 2.046,11.139 -0.664,0.122 -1.347,0.189 -2.046001,0.189 z M 92.578001,31.25 c 0,6.246 -5.082,11.328 -11.328,11.328 -0.699,0 -1.382,-0.067 -2.046,-0.189 1.321,-3.461 2.046,-7.215 2.046,-11.139 V 25 h 11.328 z"
       inkscape:connector-curvature="0" />
  </g>
  <g
     inkscape:groupmode="layer"
     id="layer76"
     inkscape:label="Truck"
     style="display:inline">
    <path
       id="path6944"
       d="m 100,53.125 -12.5,-25 H 68.75 v -12.5 c 0,-3.437 -2.813001,-6.25 -6.25,-6.25 H 6.2500005 c -3.438,0 -6.25,2.813 -6.25,6.25 v 50 l 6.25,6.25 H 14.176 c -1.064,1.839 -1.676,3.972 -1.676,6.25 0,6.904 5.596001,12.5 12.5,12.5 6.904,0 12.5,-5.596 12.5,-12.5 0,-2.278 -0.611999,-4.411 -1.676,-6.25 h 34.602999 c -1.064,1.839 -1.677,3.972 -1.677,6.25 0,6.904 5.596,12.5 12.5,12.5 6.904,0 12.5,-5.596 12.5,-12.5 0,-2.278 -0.612,-4.411 -1.677,-6.25 h 7.927 z m -31.25,0 v -18.75 h 12.956 l 9.375,18.75 z"
       inkscape:connector-curvature="0" />
  </g>
  <g
     inkscape:groupmode="layer"
     id="layer77"
     inkscape:label="Unlocked"
     style="display:inline">
    <path
       id="path6969"
       d="m 78.125002,3.1245 c 10.339,0 18.75,8.411 18.75,18.75 v 18.75 h -12.5 v -18.75 c 0,-3.446 -2.804,-6.25 -6.25,-6.25 h -12.5 c -3.446,0 -6.25,2.804 -6.25,6.25 v 18.75 h 1.563 c 2.578,0 4.688,2.109 4.688,4.688 v 46.875 c 0,2.578 -2.108999,4.688 -4.688,4.688 H 7.8129975 c -2.578,0 -4.688,-2.109 -4.688,-4.688 v -46.875 c 0,-2.578 2.109,-4.688 4.688,-4.688 H 46.876002 v -18.75 c 0,-10.339 8.411,-18.75 18.75,-18.75 h 12.5 z"
       inkscape:connector-curvature="0" />
  </g>
  <g
     inkscape:groupmode="layer"
     id="layer78"
     inkscape:label="Warning"
     style="display:inline">
    <g
       id="g7015"
       transform="translate(5e-4)">
      <path
         id="path6998"
         d="M 50,9.06 91.904,92.578 H 8.095 Z M 50,0 C 47.845,0 45.689,1.453 44.054,4.36 L 1.371,89.43 C -1.899,95.244 0.883,100 7.553,100 h 84.893 c 6.67,0 9.452,-4.757 6.182,-10.57 v 0 L 55.945,4.36 C 54.31,1.453 52.155,0 49.999,0 v 0 z"
         inkscape:connector-curvature="0" />
      <path
         id="path7000"
         d="m 56.25,81.25 c 0,3.452 -2.798,6.25 -6.25,6.25 -3.452,0 -6.25,-2.798 -6.25,-6.25 0,-3.452 2.798,-6.25 6.25,-6.25 3.452,0 6.25,2.798 6.25,6.25 z"
         inkscape:connector-curvature="0" />
      <path
         id="path7002"
         d="m 50,68.75 c -3.452,0 -6.25,-2.798 -6.25,-6.25 V 43.75 c 0,-3.452 2.798,-6.25 6.25,-6.25 3.452,0 6.25,2.798 6.25,6.25 V 62.5 c 0,3.452 -2.798,6.25 -6.25,6.25 z"
         inkscape:connector-curvature="0" />
    </g>
  </g>
  <g
     inkscape:groupmode="layer"
     id="layer79"
     inkscape:label="Woman"
     style="display:inline">
    <g
       id="g7047"
       transform="translate(3.125)">
      <path
         id="path7033"
         d="m 56.25,9.375 c 0,5.178 -4.197,9.375 -9.375,9.375 C 41.697,18.75 37.5,14.553 37.5,9.375 37.5,4.197 41.697,0 46.875,0 52.053,0 56.25,4.197 56.25,9.375 Z"
         inkscape:connector-curvature="0" />
      <path
         id="path7035"
         d="M 70.215,50 75,46.533 61.984,26.404 c -0.578,-0.877 -1.558,-1.405 -2.609,-1.405 h -25 c -1.05,0 -2.03,0.528 -2.609,1.405 L 18.75,46.533 23.535,50 34.34,35.977 38.096,44.741 25,68.75 H 36.979 L 39.062,100 h 6.25 V 68.75 h 3.125 V 100 h 6.25 L 56.77,68.75 H 68.749 L 55.653,44.74 59.409,35.976 70.214,49.999 Z"
         inkscape:connector-curvature="0" />
    </g>
  </g>
  <g
     inkscape:groupmode="layer"
     id="layer80"
     inkscape:label="Wrench"
     style="display:inline">
    <path
       id="path7063"
       d="m 97.942929,79.870929 -44.976,-38.551 c 2.095,-3.935 3.283,-8.426 3.283,-13.195001 0,-15.533 -12.592,-28.124999805678 -28.125,-28.124999805678 -2.841,0 -5.583,0.422999995678 -8.169,1.206000005678 l 16.249,16.2489998 c 2.431,2.431 2.431,6.408 0,8.839 l -9.911,9.911001 c -2.431,2.431 -6.408,2.431 -8.839,0 L 1.2059287,19.955928 c -0.78300001,2.585 -1.206000005678,5.327 -1.206000005678,8.169 0,15.533001 12.592000305678,28.125001 28.125000305678,28.125001 4.769,0 9.26,-1.188 13.195,-3.283 l 38.551,44.976 c 2.237,2.610001 6.056,2.756001 8.487,0.326 l 9.911,-9.911 c 2.430001,-2.43 2.284001,-6.249 -0.326,-8.487 z"
       inkscape:connector-curvature="0" />
  </g>
</svg>
