<?xml version="1.0" encoding="UTF-8" standalone="no"?>
<svg xmlns="http://www.w3.org/2000/svg" id="SVGCanvas" class="SVGCanvas" width="300px" height="300px"><g id="Frame1"><svg viewBox="0 0 200.71 200.71" label="Frame" id="Frame"><title>Frame</title><g inkscape:groupmode="layer" xmlns:inkscape="http://www.inkscape.org/namespaces/inkscape" id="Layer_77" data-name="Layer 77" style="display:inline" inkscape:label="Frame">
    <rect class="cls-5" x="1.8766327" y="1.8766327" width="196.95674" height="196.95674" id="rect713" style="fill:none;stroke:#000000;stroke-width:3;stroke-linecap:round;stroke-linejoin:round;stroke-miterlimit:4;stroke-dasharray:none"/>
  </g></svg></g><g id="Hourglass1" transform="translate(-15) translate(-15) translate(-15) translate(-15) translate(-15) translate(15)"><svg viewBox="0 0 200.71 200.71" label="Hourglass" id="Hourglass"><title>Hourglass</title><g inkscape:groupmode="layer" xmlns:inkscape="http://www.inkscape.org/namespaces/inkscape" id="layer23" inkscape:label="Hourglass" style="display:inline">
    <path style="fill:none;stroke:#000000;stroke-width:7;stroke-linecap:round;stroke-linejoin:round;stroke-miterlimit:4;stroke-dasharray:none;stroke-opacity:1" d="m 105.355,95.355003 10,-10 v -15 H 85.355003 v 15 l 10,10 V 105.355 l -10,10 v 15 H 115.355 v -15 l -10,-10 z" id="path1509-1" inkscape:connector-curvature="0"/>
  </g></svg></g><g id="Circle_Big3"><svg viewBox="0 0 200.71 200.71" label="Circle Big" id="Circle_Big"><title>Circle Big</title><g inkscape:groupmode="layer" xmlns:inkscape="http://www.inkscape.org/namespaces/inkscape" id="layer6" inkscape:label="Circle Big" style="display:inline">
    <ellipse style="opacity:0.01000001;fill:#000000;fill-opacity:1;stroke:#000000;stroke-width:7;stroke-linecap:round;stroke-linejoin:round;stroke-miterlimit:4;stroke-dasharray:none;stroke-dashoffset:0;stroke-opacity:0.98994978" id="path1481" cx="86.473427" cy="99.74382" rx="38.808372" ry="35.104671"/>
    <path style="opacity:0.01000001;fill:#000000;fill-opacity:1;stroke:#000000;stroke-width:1.12721419;stroke-linecap:round;stroke-linejoin:round;stroke-miterlimit:4;stroke-dasharray:none;stroke-dashoffset:0;stroke-opacity:0.98994978" d="M 89.489051,99.55425 C 83.322772,98.711786 76.689814,96.965078 70.786842,94.629252 66.687176,93.006999 60.985542,90.107751 57.62259,87.935303 L 56.535634,87.233136 V 72.426123 c 0,-8.143857 0.05445,-14.807013 0.121003,-14.807013 0.06655,0 9.61355,9.492754 21.215551,21.095008 l 21.094547,21.095008 -3.945019,-0.01898 c -2.300828,-0.01106 -4.606713,-0.109387 -5.532665,-0.235894 z" id="path1483" inkscape:connector-curvature="0"/>
    <circle style="opacity:1;fill:none;fill-opacity:1;stroke:#000000;stroke-width:7.16343546;stroke-linecap:round;stroke-linejoin:round;stroke-miterlimit:4;stroke-dasharray:none;stroke-dashoffset:0;stroke-opacity:0.98994978" id="path1489" cx="100.355" cy="100.355" r="81.418282"/>
  </g></svg></g><g id="10'" transform="translate(15) translate(15) translate(15) translate(15) translate(15) translate(15) translate(0, 15) translate(0, 15)"><title>10'</title><svg><text x="10%" y="50%" style="font-size: 75px; stroke: none; fill: black; font-family: Verdana, Geneva, sans-serif;">10'</text></svg></g></svg>